Patient4_TMGait_0pt7_01_left_44_GRF.mot
version=1
nRows=78
nColumns=19
inDegrees=no
endheader
time	F1x	F1y	F1z	M1x	M1y	M1z	F2x	F2y	F2z	M2x	M2y	M2z	EC1x	EC1y	EC1z	EC2x	EC2y	EC2z
50.99	6.9309	7.8134	-5.1496	-0.71796	5.3043	12.4111	-8.4466	745.8028	-69.2012	310.9327	74.2985	813.3328	-0.0592	0.0182	-0.0073	-0.0462	0.0165	0.9585
51.002	4.5001	6.1136	-3.3055	-0.79645	3.3212	9.2937	-12.2148	744.4487	-65.7149	309.4259	73.1099	810.2386	-0.0592	0.0182	-0.0073	-0.0462	0.0165	0.9585
51.014	2.3787	4.7539	-1.762	-0.88645	1.6397	6.8161	-14.9995	742.715	-62.7469	307.7996	71.8019	806.1157	-0.0592	0.0182	-0.0073	-0.0462	0.0165	0.9585
51.026	0.7092	3.8072	-0.59915	-0.98396	0.35584	5.0949	-16.63	740.9513	-60.4606	306.2396	70.4276	801.3821	-0.0592	0.0182	-0.0073	-0.0462	0.0165	0.9585
51.038	-0.47292	3.2211	0.19284	-1.077	-0.53093	4.0232	-17.1434	739.5405	-58.8796	304.9147	69.0397	796.511	-0.0592	0.0182	-0.0073	-0.0462	0.0165	0.9585
51.05	-1.2508	2.9416	0.67092	-1.162	-1.0873	3.4963	-16.708	738.7896	-57.8987	303.9376	67.6461	791.9201	-0.0592	0.0182	-0.0073	-0.0462	0.0165	0.9585
51.062	-1.7073	2.8473	0.9136	-1.2243	-1.3941	3.2898	-15.4872	738.7965	-57.3707	303.3303	66.2382	787.7743	-0.0592	0.0182	-0.0073	-0.0462	0.0165	0.9585
51.074	-1.9811	2.839	1.0015	-1.2516	-1.5517	3.2585	-13.6355	739.4994	-57.1175	303.0426	64.7636	784.0676	-0.0592	0.0182	-0.0073	-0.0462	0.0165	0.9585
51.086	-2.1356	2.7902	1.0067	-1.2236	-1.632	3.1978	-11.2439	740.6797	-56.9945	302.9647	63.1666	780.6058	-0.0592	0.0182	-0.0073	-0.0462	0.0165	0.9585
51.098	-2.2791	2.5863	0.98907	-1.1146	-1.7074	2.9659	-8.3941	742.0431	-56.8816	302.9598	61.3955	777.1099	-0.0592	0.0182	-0.0073	-0.0462	0.0165	0.9585
51.11	-2.4169	2.0821	0.98335	-0.88957	-1.8009	2.3453	-5.1509	743.2944	-56.7071	302.8977	59.4269	773.2945	-0.0592	0.0182	-0.0073	-0.0462	0.0165	0.9585
51.122	-2.5825	1.1599	1.0043	-0.51476	-1.9261	1.2114	-1.6012	744.1806	-56.4383	302.6754	57.2675	768.9408	-0.0592	0.0182	-0.0073	-0.0462	0.0165	0.9585
51.134	-2.7109	-0.30143	1.0375	0.044066	-2.0385	-0.61862	2.1723	744.5214	-56.0739	302.2294	54.9492	763.901	-0.0592	0.0182	-0.0073	-0.0462	0.0165	0.9585
51.146	-2.7521	-2.3286	1.0523	0.79603	-2.0785	-3.1553	6.0805	744.1962	-55.6481	301.5219	52.5374	758.0966	-0.0592	0.0182	-0.0073	-0.0462	0.0165	0.9585
51.158	-2.546	-4.8752	1.0058	1.7179	-1.9395	-6.3506	10.051	743.0764	-55.2031	300.5164	50.0961	751.4426	-0.0592	0.0182	-0.0073	-0.0462	0.0165	0.9585
51.17	-1.9428	-7.6696	0.83741	2.7106	-1.4959	-9.8536	14.0317	741.0356	-54.8347	299.1741	47.7258	743.8737	-0.0592	0.0182	-0.0073	-0.0462	0.0165	0.9585
51.182	-0.69396	-10.2169	0.48816	3.5859	-0.58977	-13.063	17.9934	737.9566	-54.6161	297.463	45.5005	735.3124	-0.0592	0.0182	-0.0073	-0.0462	0.0165	0.9585
51.194	1.4272	-11.5994	-0.1156	4.0111	0.94553	-14.8316	21.9071	733.7763	-54.6254	295.3721	43.5024	725.7317	-0.0592	0.0182	-0.0073	-0.0462	0.0165	0.9585
51.206	4.6538	-10.4604	-1.0168	3.4951	3.2467	-13.5028	25.7679	728.4737	-54.8782	292.9066	41.7532	715.1562	-0.0592	0.0182	-0.0073	-0.0462	0.0165	0.9585
51.218	9.0756	-4.8919	-2.255	1.3565	6.3844	-6.721	29.5589	722.0084	-55.3449	290.0582	40.2407	703.6085	-0.0592	0.0182	-0.0073	-0.0462	0.0165	0.9585
51.23	14.5677	7.4687	-3.7711	-3.2448	10.2412	8.4177	33.288	714.1706	-55.9188	286.7532	38.8796	690.921	-0.0592	0.0182	-0.0073	-0.0462	0.0165	0.9585
51.242	20.5912	29.2267	-5.4196	-11.2251	14.4374	35.1488	36.9657	704.5404	-56.4212	282.829	37.5187	676.7387	-0.0592	0.0182	-0.0073	-0.0462	0.0165	0.9585
51.254	26.0225	62.7637	-6.8579	-23.4044	18.149	76.4348	40.6069	692.4048	-56.6115	278.0063	35.9501	660.4341	-0.0592	0.0182	-0.0073	-0.0462	0.0165	0.9585
51.266	28.9337	109.4083	-7.5407	-40.2056	19.9999	133.9661	44.1381	676.7789	-56.2144	271.8873	33.9605	641.1563	-0.0592	0.0182	-0.0073	-0.0462	0.0165	0.9585
51.278	26.6731	168.5453	-6.6205	-61.3351	18.0276	207.0779	47.4282	656.3986	-54.9648	263.9602	31.369	617.8031	-0.0592	0.0182	-0.0073	-0.0462	0.0165	0.9585
51.29	17.6554	238.0649	-3.2187	-85.9382	10.6197	293.2997	50.2152	629.8912	-52.6795	253.6586	28.1144	589.2124	-0.0592	0.0182	-0.0073	-0.0462	0.0165	0.9585
51.302	2.9298	314.9115	3.2972	-112.7993	-2.6374	388.843	52.1771	596.0131	-49.3116	240.4521	24.2846	554.3345	-0.0592	0.0182	-0.0073	-0.0462	0.0165	0.9585
51.314	-15.128	393.5441	13.3533	-139.8744	-21.3562	486.5705	52.9182	553.8799	-45.0142	223.9361	20.1665	512.4582	-0.0592	0.0182	-0.0073	-0.0462	0.0165	0.9585
51.326	-33.8131	467.6494	26.3043	-164.9786	-43.6519	578.2202	52.0922	503.1905	-40.1028	203.9391	16.1724	463.3619	-0.0592	0.0182	-0.0073	-0.0462	0.0165	0.9585
51.338	-50.8258	533.8867	40.063	-187.0726	-66.155	659.2614	49.4188	444.6935	-34.9377	180.7018	12.7145	407.7778	-0.0592	0.0182	-0.0073	-0.0462	0.0165	0.9585
51.35	-64.9725	591.7596	52.7671	-206.1383	-86.1435	728.9194	44.826	380.2504	-29.8931	154.9293	10.1315	347.4035	-0.0592	0.0182	-0.0073	-0.0462	0.0165	0.9585
51.362	-75.5637	641.5849	63.0122	-222.4387	-101.7386	787.5057	38.4751	312.7678	-25.2426	127.7681	8.5685	284.8757	-0.0592	0.0182	-0.0073	-0.0462	0.0165	0.9585
51.374	-82.3865	683.424	70.24	-236.0953	-112.2165	835.1731	30.8735	245.824	-21.1408	100.6694	7.9342	223.3655	-0.0592	0.0182	-0.0073	-0.0462	0.0165	0.9585
51.386	-85.3354	717.114	74.4358	-247.1059	-117.6116	871.7239	22.7777	183.2242	-17.5697	75.2018	7.8909	166.2143	-0.0592	0.0182	-0.0073	-0.0462	0.0165	0.9585
51.398	-84.635	742.5824	76.2332	-255.4388	-118.7946	897.259	15.1521	128.2371	-14.403	52.7363	7.9498	116.2311	-0.0592	0.0182	-0.0073	-0.0462	0.0165	0.9585
51.41	-80.6817	759.8919	76.2916	-261.0977	-116.7528	912.0248	8.7615	82.9626	-11.4742	34.1722	7.6762	75.2005	-0.0592	0.0182	-0.0073	-0.0462	0.0165	0.9585
51.422	-74.2556	769.4054	75.3153	-264.1693	-112.6071	916.7784	3.9639	48.1027	-8.6945	19.8377	6.8829	43.6644	-0.0592	0.0182	-0.0073	-0.0462	0.0165	0.9585
51.434	-66.1514	771.8414	73.7499	-264.8772	-107.2034	912.6685	0.74068	23.2327	-6.0927	9.5818	5.6346	21.2079	-0.0592	0.0182	-0.0073	-0.0462	0.0165	0.9585
51.446	-57.2438	768.4644	71.8886	-263.6348	-101.2022	901.5114	-1.1404	7.0851	-3.8144	2.8976	4.175	6.6666	-0.0592	0.0182	-0.0073	-0.0462	0.0165	0.9585
51.458	-48.1665	760.9348	69.7625	-261.0173	-94.8956	885.4836	-2.041	-2.1102	-2.0439	-0.93328	2.8204	-1.5704	-0.0592	0.0182	-0.0073	-0.0462	0.0165	0.9585
51.47	-39.4168	751.0678	67.3601	-257.6545	-88.4634	866.9114	-2.2877	-6.2635	-0.80391	-2.6899	1.7219	-5.2355	-0.0592	0.0182	-0.0073	-0.0462	0.0165	0.9585
51.482	-31.2794	740.5042	64.7254	-254.1218	-82.0727	847.7973	-2.1472	-7.1293	-0.010248	-3.0857	0.90423	-5.9259	-0.0592	0.0182	-0.0073	-0.0462	0.0165	0.9585
51.494	-23.9363	730.6304	62.02	-250.8969	-75.9719	829.8007	-1.8254	-6.1152	0.41957	-2.6974	0.36579	-4.9221	-0.0592	0.0182	-0.0073	-0.0462	0.0165	0.9585
51.506	-17.3881	722.4684	59.5033	-248.3283	-70.4502	814.0705	-1.4352	-4.248	0.60535	-1.9446	0.033919	-3.1712	-0.0592	0.0182	-0.0073	-0.0462	0.0165	0.9585
51.518	-11.5994	716.6641	57.3626	-246.6439	-65.6954	801.2845	-1.0779	-2.2032	0.61862	-1.1059	-0.12848	-1.2765	-0.0592	0.0182	-0.0073	-0.0462	0.0165	0.9585
51.53	-6.4603	713.5903	55.7035	-245.984	-61.7751	791.7765	-0.76562	-0.3659	0.54753	-0.34081	-0.19341	0.39432	-0.0592	0.0182	-0.0073	-0.0462	0.0165	0.9585
51.542	-1.859	713.3995	54.4634	-246.4156	-58.562	785.6239	-0.53918	1.1068	0.42619	0.27838	-0.17729	1.7174	-0.0592	0.0182	-0.0073	-0.0462	0.0165	0.9585
51.554	2.2935	716.0192	53.5487	-247.919	-55.8888	782.6554	-0.36997	2.1556	0.3008	0.72948	-0.12969	2.6307	-0.0592	0.0182	-0.0073	-0.0462	0.0165	0.9585
51.566	6.044	721.1424	52.8662	-250.3765	-53.5968	782.4647	-0.27534	2.8402	0.1764	1.0307	-0.051405	3.2248	-0.0592	0.0182	-0.0073	-0.0462	0.0165	0.9585
51.578	9.4035	728.1917	52.3869	-253.5592	-51.6116	784.4025	-0.21344	3.2115	0.080599	1.2066	0.021439	3.5326	-0.0592	0.0182	-0.0073	-0.0462	0.0165	0.9585
51.59	12.3647	736.3674	52.1089	-257.1476	-49.9008	787.6006	-0.20281	3.3824	0.0088132	1.297	0.09512	3.6751	-0.0592	0.0182	-0.0073	-0.0462	0.0165	0.9585
51.602	14.9366	744.7283	52.0374	-260.7639	-48.4496	791.081	-0.19482	3.417	-0.04198	1.3299	0.15569	3.6945	-0.0592	0.0182	-0.0073	-0.0462	0.0165	0.9585
51.614	17.1632	752.2636	52.1921	-264.0037	-47.2559	793.8073	-0.21989	3.4085	-0.072058	1.3374	0.20654	3.7139	-0.0592	0.0182	-0.0073	-0.0462	0.0165	0.9585
51.626	19.0864	758.0366	52.5732	-266.4922	-46.3159	794.8435	-0.24607	3.4003	-0.092729	1.3381	0.24878	3.7581	-0.0592	0.0182	-0.0073	-0.0462	0.0165	0.9585
51.638	20.7545	761.3094	53.1816	-267.9348	-45.6289	793.4738	-0.29643	3.4325	-0.10278	1.3449	0.28693	3.8713	-0.0592	0.0182	-0.0073	-0.0462	0.0165	0.9585
51.65	22.1992	761.718	53.9695	-268.1776	-45.1593	789.3875	-0.34215	3.4839	-0.10676	1.3538	0.3194	4.0018	-0.0592	0.0182	-0.0073	-0.0462	0.0165	0.9585
51.662	23.4367	759.318	54.886	-267.2261	-44.8747	782.7009	-0.41031	3.5468	-0.10557	1.3614	0.35406	4.1405	-0.0592	0.0182	-0.0073	-0.0462	0.0165	0.9585
51.674	24.5022	754.5915	55.8413	-265.243	-44.7064	773.9465	-0.48336	3.5729	-0.10308	1.3534	0.38942	4.2091	-0.0592	0.0182	-0.0073	-0.0462	0.0165	0.9585
51.686	25.4462	748.2909	56.8025	-262.4926	-44.6328	763.916	-0.58371	3.513	-0.10533	1.3126	0.43454	4.1519	-0.0592	0.0182	-0.0073	-0.0462	0.0165	0.9585
51.698	26.3364	741.2682	57.7457	-259.2807	-44.6317	753.4755	-0.69893	3.2889	-0.11984	1.2133	0.49743	3.8641	-0.0592	0.0182	-0.0073	-0.0462	0.0165	0.9585
51.71	27.2681	734.3053	58.7194	-255.8906	-44.7316	743.3991	-0.83224	2.8093	-0.15886	1.0248	0.59001	3.2387	-0.0592	0.0182	-0.0073	-0.0462	0.0165	0.9585
51.722	28.3753	728.0179	59.7498	-252.5556	-44.9251	734.2502	-0.96194	1.9767	-0.22123	0.71457	0.70157	2.1577	-0.0592	0.0182	-0.0073	-0.0462	0.0165	0.9585
51.734	29.7648	722.8454	60.8908	-249.4501	-45.2259	726.4	-1.0507	0.71353	-0.30829	0.25738	0.81692	0.52926	-0.0592	0.0182	-0.0073	-0.0462	0.0165	0.9585
51.746	31.5604	719.0916	62.157	-246.7053	-45.598	720.0606	-1.0438	-1.0179	-0.40238	-0.35752	0.89436	-1.6948	-0.0592	0.0182	-0.0073	-0.0462	0.0165	0.9585
51.758	33.8251	716.9727	63.5813	-244.4196	-46.0322	715.376	-0.8504	-3.1542	-0.46946	-1.1058	0.86234	-4.4407	-0.0592	0.0182	-0.0073	-0.0462	0.0165	0.9585
51.77	36.5842	716.6073	65.1787	-242.6584	-46.5138	712.3949	-0.37252	-5.4691	-0.4539	-1.9064	0.62443	-7.4251	-0.0592	0.0182	-0.0073	-0.0462	0.0165	0.9585
51.782	39.761	718.0206	66.981	-241.4518	-47.0718	711.121	0.52166	-7.5232	-0.28187	-2.5992	0.053462	-10.1011	-0.0592	0.0182	-0.0073	-0.0462	0.0165	0.9585
51.794	43.2351	721.0893	68.9901	-240.7818	-47.7267	711.4099	1.9449	-8.5536	0.13407	-2.9083	-1.0004	-11.5106	-0.0592	0.0182	-0.0073	-0.0462	0.0165	0.9585
51.806	46.8217	725.5925	71.1626	-240.5994	-48.4764	713.034	3.9973	-7.4306	0.88265	-2.4233	-2.6839	-10.2392	-0.0592	0.0182	-0.0073	-0.0462	0.0165	0.9585
51.818	50.3927	731.2636	73.43	-240.8443	-49.2876	715.7029	6.6605	-2.5985	2.028	-0.58242	-5.0737	-4.316	-0.0592	0.0182	-0.0073	-0.0462	0.0165	0.9585
51.83	53.8511	737.7143	75.6733	-241.4246	-50.0753	719.0212	9.7841	7.8374	3.5899	3.2993	-8.1355	8.6568	-0.0592	0.0182	-0.0073	-0.0462	0.0165	0.9585
51.842	57.1912	744.3027	77.7719	-242.1713	-50.7342	722.343	12.9188	25.9605	5.4999	9.9644	-11.6197	31.3481	-0.0592	0.0182	-0.0073	-0.0462	0.0165	0.9585
51.854	60.4511	749.9695	79.5331	-242.7793	-51.0826	724.6577	15.2631	53.6015	7.5541	20.0524	-14.9674	66.1114	-0.0592	0.0182	-0.0073	-0.0462	0.0165	0.9585
51.866	63.6994	753.1739	80.7326	-242.7792	-50.908	724.5101	15.4979	91.708	9.3369	33.8603	-17.1663	114.2217	-0.0592	0.0182	-0.0073	-0.0462	0.0165	0.9585
51.878	66.9219	751.9686	81.0623	-241.5649	-49.9499	720.0942	11.8819	139.5096	10.1323	51.0507	-16.7037	174.8081	-0.0592	0.0182	-0.0073	-0.0462	0.0165	0.9585
51.89	70.0152	744.1867	80.2009	-238.4541	-47.9743	709.4487	3.3457	194.5547	9.0969	70.6656	-12.1869	244.9162	-0.0592	0.0182	-0.0073	-0.0462	0.0165	0.9585
51.902	72.731	727.8256	77.818	-232.8107	-44.7873	690.813	-9.2216	253.1095	5.7524	91.3099	-3.3341	319.8505	-0.0592	0.0182	-0.0073	-0.0462	0.0165	0.9585
51.914	74.722	701.3526	73.6855	-224.1403	-40.3159	662.8873	-23.867	309.8694	0.18292	111.0886	9.0401	392.7517	-0.0592	0.0182	-0.0073	-0.0462	0.0165	0.9585
